Coordinates
version=1
nRows=11
nColumns=63
inDegrees=yes

Units are S.I. units (second, meters, Newtons, ...)
If the header above contains a line with 'inDegrees', this indicates whether rotational values are in degrees (yes) or radians (no).

endheader
time	pelvis_tilt	pelvis_list	pelvis_rotation	pelvis_tx	pelvis_ty	pelvis_tz	hip_flexion_r	hip_adduction_r	hip_rotation_r	knee_angle_r	knee_angle_r_beta	ankle_angle_r	subtalar_angle_r	mtp_angle_r	hip_flexion_l	hip_adduction_l	hip_rotation_l	knee_angle_l	knee_angle_l_beta	ankle_angle_l	subtalar_angle_l	mtp_angle_l	L5_S1_Flex_Ext	L5_S1_Lat_Bending	L5_S1_axial_rotation	L4_L5_Flex_Ext	L4_L5_Lat_Bending	L4_L5_axial_rotation	L3_L4_Flex_Ext	L3_L4_Lat_Bending	L3_L4_axial_rotation	L2_L3_Flex_Ext	L2_L3_Lat_Bending	L2_L3_axial_rotation	L1_L2_Flex_Ext	L1_L2_Lat_Bending	L1_L2_axial_rotation	L1_T12_Flex_Ext	L1_T12_Lat_Bending	L1_T12_axial_rotation	Abs_r3	Abs_r2	Abs_r1	Abs_t1	Abs_t2	neck_flexion	neck_bending	neck_rotation	arm_flex_r	arm_add_r	arm_rot_r	elbow_flex_r	pro_sup_r	wrist_flex_r	wrist_dev_r	arm_flex_l	arm_add_l	arm_rot_l	elbow_flex_l	pro_sup_l	wrist_flex_l	wrist_dev_l
      0.01666667	     85.19733643	     37.52320147	   -140.83940457	     -0.09553991	      2.13596481	      0.09918451	     38.56784737	     26.53412617	    -25.32476859	     43.52538539	      0.75966128	     50.64493918	     -1.83785429	      0.00000000	     75.02802789	    -40.95135820	     27.24139929	     69.53011766	      1.21352948	     58.30397233	     19.78426494	      0.00000000	     -0.06211220	      5.00285560	     -3.30448461	     -0.11534857	      6.65379795	     -3.51101489	     -0.10204414	     12.16394311	     -3.51101489	     -0.07098804	     12.16394311	     -2.89142403	     -0.05767739	     10.20182315	     -2.68489374	     -0.03549091	      7.74942333	     -2.47836345	     -0.44366126	     56.59330315	    -18.37855203	      0.00000000	      0.00000000	    -25.62603576	    -47.18438451	     12.79341298	      6.81639047	      0.74329352	    -15.49517952	     46.32587963	     89.99559364	      0.00000000	      0.00000000	     13.39603851	     20.96773546	     59.91725295	     21.74254952	     89.99559364	      0.00000000	      0.00000000
      0.03333333	     89.45446005	     36.04346004	   -146.71478844	     -0.09328372	      2.14085090	      0.09908289	     40.72076935	     24.44472194	    -20.84644013	     47.70115918	      0.83254228	     50.42580810	      0.38817062	      0.00000000	     72.32591740	    -41.14955926	     23.23349750	     69.63852404	      1.21542153	     58.69167413	     19.74557770	      0.00000000	     -0.05652549	      4.70064425	     -1.85787630	     -0.10497349	      6.25185685	     -1.97399357	     -0.09286573	     11.42914643	     -1.97399357	     -0.06460298	     11.42914643	     -1.62564176	     -0.05248957	      9.58555375	     -1.50952449	     -0.03229866	      7.28129794	     -1.39340722	     -0.40375591	     53.17462787	    -10.33295061	      0.00000000	      0.00000000	    -25.10579659	    -50.59275678	     13.30425354	      3.34618881	      0.13038601	    -16.15764016	     50.58629822	     89.99559364	      0.00000000	      0.00000000	     11.92777283	     20.96217970	     45.90063782	     26.03570543	     89.99559364	      0.00000000	      0.00000000
      0.05000000	     93.45368465	     34.09019792	   -151.68673927	     -0.09070440	      2.14679015	      0.10011019	     42.75044692	     21.76806489	    -17.58209592	     51.23343843	      0.89419219	     50.41642714	      3.68073303	      0.00000000	     69.79278314	    -39.85292976	     20.24155237	     69.96859737	      1.22118240	     58.82898811	     19.64115399	      0.00000000	     -0.05234858	      4.36379587	     -0.69556042	     -0.09721654	      5.80384851	     -0.73903294	     -0.08600347	     10.61013328	     -0.73903294	     -0.05982919	     10.61013328	     -0.60861536	     -0.04861089	      8.89865254	     -0.56514284	     -0.02991198	      6.75951980	     -0.52167031	     -0.37392064	     49.36413164	     -3.86849836	      0.00000000	      0.00000000	    -24.29784168	    -55.91056961	     14.87115375	      1.30979100	     -0.16367129	    -16.40014156	     52.32869103	     89.99559364	      0.00000000	      0.00000000	     11.43668466	     20.86171259	     39.44170390	     29.82911397	     89.99559364	      0.00000000	      0.00000000
      0.06666667	     96.90524860	     31.74558140	   -155.76147986	     -0.08814445	      2.15289163	      0.10295201	     44.35615195	     18.55884449	    -15.44318678	     54.07024456	      0.94370379	     50.68126817	      7.77130702	      0.00000000	     67.62895942	    -37.25164989	     18.64135327	     70.84313806	      1.23644601	     58.54623281	     19.25954020	      0.00000000	     -0.05191726	      4.00146818	      0.05242753	     -0.09641555	      5.32195269	      0.05570425	     -0.08529487	      9.72916974	      0.05570425	     -0.05933624	      9.72916974	      0.04587409	     -0.04821037	      8.15979392	      0.04259737	     -0.02966552	      6.19827422	      0.03932065	     -0.37083980	     45.26540839	      0.29158618	      0.00000000	      0.00000000	    -23.96534377	    -57.30848910	     15.54663753	      1.42786673	     -0.34380690	    -15.45897781	     50.50575857	     89.99559364	      0.00000000	      0.00000000	     11.79512906	     20.37528117	     37.91229687	     32.00077148	     89.99559364	      0.00000000	      0.00000000
      0.08333333	     99.65272129	     29.24243131	   -158.57459160	     -0.08588128	      2.15868129	      0.10888272	     45.42805285	     14.85008024	    -14.26841089	     56.09089095	      0.97897073	     51.21904570	     11.71739003	      0.00000000	     65.59627882	    -32.17893988	     19.89907230	     72.25759154	      1.26113288	     57.47993189	     14.99492198	      0.00000000	     -0.05037545	      3.66211831	      0.24559378	     -0.09355225	      4.87061736	      0.26094339	     -0.08276183	      8.90407447	      0.26094339	     -0.05757410	      8.90407447	      0.21489455	     -0.04677864	      7.46779166	      0.19954494	     -0.02878453	      5.67262127	      0.18419533	     -0.35982681	     41.42661478	      1.36591890	      0.00000000	      0.00000000	    -24.08903921	    -58.91118267	     16.76663497	      3.86138717	     -0.28216360	    -13.75100547	     45.06545271	     89.99559364	      0.00000000	      0.00000000	     12.06404581	     19.96745468	     35.99138105	     32.49932697	     89.99559364	      0.00000000	      0.00000000
      0.10000000	    101.02429863	     27.85908477	   -160.06020371	     -0.08457872	      2.16258966	      0.11845860	     45.32442222	     11.97490973	    -14.60369863	     56.46804531	      0.98555331	     52.01064458	     15.04297261	      0.00000000	     63.89482274	    -26.24916669	     23.99314958	     74.00420509	      1.29161704	     55.22971149	      5.69394838	      0.00000000	     -0.05216309	      3.52889596	      0.03705524	     -0.09687208	      4.69343162	      0.03937120	     -0.08569874	      8.58015763	      0.03937120	     -0.05961720	      8.58015763	      0.03242334	     -0.04843865	      7.19612464	      0.03010739	     -0.02980599	      5.46625984	      0.02779143	     -0.37259575	     39.91957685	      0.20609015	      0.00000000	      0.00000000	    -24.31368411	    -59.66239602	     18.08408446	      7.33580265	     -0.27741137	    -12.55755199	     38.41903699	     89.99559364	      0.00000000	      0.00000000	     12.60486488	     20.00285527	     35.43994997	     31.14047269	     89.99559364	      0.00000000	      0.00000000
      0.11666667	    100.89849527	     28.96026275	   -161.21192470	     -0.08422145	      2.16204314	      0.12765713	     44.11145203	     12.67295630	    -15.08615375	     54.61862342	      0.95327481	     52.67962069	     16.61633214	      0.00000000	     64.12377985	    -25.63118795	     26.37013664	     75.69423085	      1.32111355	     54.22504344	      2.62837644	      0.00000000	     -0.05291619	      3.72035734	     -0.18091269	     -0.09827065	      4.94807526	     -0.19221974	     -0.08693600	      9.04567683	     -0.19221974	     -0.06047791	      9.04567683	     -0.15829861	     -0.04913797	      7.58655268	     -0.14699156	     -0.03023631	      5.76283351	     -0.13568452	     -0.37797502	     42.08542625	     -1.00618213	      0.00000000	      0.00000000	    -24.56443781	    -59.67800338	     18.75879996	      9.72979405	     -0.58054004	    -12.64378713	     34.43812558	     89.99559364	      0.00000000	      0.00000000	     13.23014608	     20.77619144	     36.30250961	     28.32208229	     89.99559364	      0.00000000	      0.00000000
      0.13333333	     99.60783906	     31.73236297	   -160.22636429	     -0.08432697	      2.16102068	      0.13810585	     42.14924274	     14.58455565	    -17.07031727	     51.14653618	      0.89267546	     53.34023838	     17.01462531	      0.00000000	     65.59594645	    -26.19160082	     29.59947244	     76.75789809	      1.33967805	     53.85265918	      2.45683507	      0.00000000	     -0.05486461	      4.12824437	     -0.54543278	     -0.10188907	      5.49056501	     -0.57952233	     -0.09013707	     10.03741335	     -0.57952233	     -0.06270477	     10.03741335	     -0.47725368	     -0.05094728	      8.41831591	     -0.44316413	     -0.03134964	      6.39465052	     -0.40907458	     -0.39189244	     46.69952591	     -3.03353349	      0.00000000	      0.00000000	    -24.64821890	    -59.22781970	     19.76004749	      9.99665192	     -1.55668496	    -13.18372112	     36.49823078	     89.99559364	      0.00000000	      0.00000000	     14.23353809	     21.73328235	     39.93743556	     25.96085921	     89.99559364	      0.00000000	      0.00000000
      0.15000000	     98.40417472	     34.75288414	   -159.57148710	     -0.08471905	      2.15984366	      0.14650440	     40.49279287	     17.67351184	    -17.48829951	     46.92993174	      0.81908183	     53.68510405	     16.01108462	      0.00000000	     67.78437227	    -28.88381552	     30.91796549	     76.95380647	      1.34309729	     54.71371377	      5.51831896	      0.00000000	     -0.05699242	      4.54151654	     -0.62312020	     -0.10584062	      6.04021699	     -0.66206521	     -0.09363284	     11.04224331	     -0.66206521	     -0.06513663	     11.04224331	     -0.54523017	     -0.05292316	      9.26106052	     -0.50628516	     -0.03256547	      7.03480911	     -0.46734015	     -0.40709113	     51.37454336	     -3.46560761	      0.00000000	      0.00000000	    -24.39739392	    -58.82300099	     20.28843848	      8.38104571	     -2.61964708	    -14.55635306	     42.77387657	     89.99559364	      0.00000000	      0.00000000	     15.13953837	     22.69092175	     43.73616216	     24.49405536	     89.99559364	      0.00000000	      0.00000000
      0.16666667	     97.88991544	     37.32889160	   -159.30287241	     -0.08498109	      2.16030485	      0.15344346	     39.63873810	     20.58749633	    -16.47287558	     42.78497617	      0.74673870	     53.55926371	     13.14908920	      0.00000000	     70.45193757	    -32.13413587	     30.45840900	     76.44528124	      1.33422186	     55.89828465	      9.73925510	      0.00000000	     -0.05688800	      4.87623478	     -0.55893818	     -0.10564670	      6.48539226	     -0.59387181	     -0.09346129	     11.85607725	     -0.59387181	     -0.06501729	     11.85607725	     -0.48907091	     -0.05282619	      9.94361796	     -0.45413727	     -0.03250580	      7.55328768	     -0.41920363	     -0.40634528	     55.16094308	     -3.10864646	      0.00000000	      0.00000000	    -23.90389945	    -59.03299336	     20.72884486	      6.53396343	     -3.35178354	    -16.35172318	     49.44125181	     89.99559364	      0.00000000	      0.00000000	     15.32588583	     23.50827383	     43.60955797	     24.58882228	     89.99559364	      0.00000000	      0.00000000
      0.18333333	     98.71566091	     39.11378582	   -160.12197286	     -0.08473711	      2.16204943	      0.15843097	     40.26092292	     23.84457459	    -10.64819398	     39.51485934	      0.68966440	     52.23962018	      4.17660247	      0.00000000	     73.37806684	    -35.70197278	     27.79092909	     75.59702333	      1.31941696	     56.97483921	     14.56481401	      0.00000000	     -0.05499064	      5.07762328	     -0.48263207	     -0.10212312	      6.75323897	     -0.51279658	     -0.09034412	     12.34573325	     -0.51279658	     -0.06284880	     12.34573325	     -0.42230306	     -0.05106431	     10.35428940	     -0.39213856	     -0.03142165	      7.86523846	     -0.36197405	     -0.39279263	     57.43909009	     -2.68425479	      0.00000000	      0.00000000	    -22.53952328	    -60.69352730	     22.13565388	      5.74587889	     -3.32851880	    -17.85673862	     53.38274249	     89.99559364	      0.00000000	      0.00000000	     13.46208830	     24.51082165	     33.25776112	     26.80892006	     89.99559364	      0.00000000	      0.00000000
